<?xml version="1.0" encoding="utf-8"?>
<!-- Generator: Adobe Illustrator 25.2.3, SVG Export Plug-In . SVG Version: 6.00 Build 0)  -->
<svg version="1.1" id="Layer_1" xmlns="http://www.w3.org/2000/svg" xmlns:xlink="http://www.w3.org/1999/xlink" x="0px" y="0px"
	 viewBox="0 0 500 500" style="enable-background:new 0 0 500 500;" xml:space="preserve">
<path d="M84,430.8c-4,0-7.7-1.5-10.5-4.3s-4.3-6.5-4.3-10.5s1.5-7.7,4.3-10.5L229,250L73.5,94.5c-5.8-5.8-5.8-15.2,0-21
	c2.8-2.8,6.5-4.3,10.5-4.3s7.7,1.5,10.5,4.3L250,229L405.5,73.5c2.8-2.8,6.5-4.3,10.5-4.3s7.7,1.5,10.5,4.3s4.3,6.5,4.3,10.5
	s-1.5,7.7-4.3,10.5L271,250l155.5,155.5c5.8,5.8,5.8,15.2,0,21c-2.8,2.8-6.5,4.3-10.5,4.3s-7.7-1.5-10.5-4.3L250,271L94.5,426.5
	C91.7,429.3,88,430.8,84,430.8z"/>
</svg>
