<?xml version="1.0" encoding="utf-8"?>
<!-- Generator: Adobe Illustrator 25.2.3, SVG Export Plug-In . SVG Version: 6.00 Build 0)  -->
<svg version="1.1" id="Layer_1" xmlns="http://www.w3.org/2000/svg" xmlns:xlink="http://www.w3.org/1999/xlink" x="0px" y="0px"
	 viewBox="0 0 500 500" style="enable-background:new 0 0 500 500;" xml:space="preserve">
<style type="text/css">
	.st0{stroke:#000000;stroke-miterlimit:10;}
	.st1{fill:#FFFFFF;}
</style>
<g>
	<path class="st0" d="M448.8,80.8l-29.6-29.6c-8.6-8.6-22.5-8.6-31,0L86.5,352.9c-4.5,4.5-7.9,9.9-10.2,15.8L44.9,452
		c-0.7,1.9,1.1,3.7,3,3l83.3-31.4c5.9-2.2,11.3-5.7,15.8-10.2l301.7-301.7C457.4,103.2,457.4,89.3,448.8,80.8z"/>
	<path class="st1" d="M80.1,368.9L52,445.3c-0.6,1.7,1,3.3,2.7,2.7l76.4-28.1L80.1,368.9z"/>
	<path class="st0" d="M72.2,445.4l-23.7,8.9c-1.9,0.7-3.7-1.1-3-3l8.6-22.8C60.7,431,67.5,438.4,72.2,445.4z"/>
</g>
</svg>
