<?xml version="1.0" encoding="utf-8"?>
<!-- Generator: Adobe Illustrator 25.2.1, SVG Export Plug-In . SVG Version: 6.00 Build 0)  -->
<svg version="1.1" id="Layer_1" xmlns="http://www.w3.org/2000/svg" xmlns:xlink="http://www.w3.org/1999/xlink" x="0px" y="0px"
	 viewBox="0 0 500 500" style="enable-background:new 0 0 500 500;" xml:space="preserve">
<style type="text/css">
	.st0{fill:none;stroke:#FFFFFF;stroke-width:25;stroke-linecap:round;stroke-miterlimit:10;}
	.st1{fill:#FFFFFF;}
</style>
<path class="st0" d="M351.5,320.3c38.7,0,70.3-31.7,70.3-70.3l0,0c0-38.7-31.7-70.3-70.3-70.3h-88.6"/>
<path class="st0" d="M148.5,179.7c-38.7,0-70.3,31.7-70.3,70.3l0,0c0,38.7,31.7,70.3,70.3,70.3h88.6"/>
<path class="st1" d="M202.4,175.8l-47.2-27.3c-2.9-1.7-6.6,0.4-6.6,3.8v54.5c0,3.4,3.7,5.5,6.6,3.8l47.2-27.3
	C205.3,181.8,205.3,177.5,202.4,175.8z"/>
<path class="st1" d="M297.6,324.2l47.2,27.3c2.9,1.7,6.6-0.4,6.6-3.8v-54.5c0-3.4-3.7-5.5-6.6-3.8l-47.2,27.3
	C294.7,318.2,294.7,322.5,297.6,324.2z"/>
</svg>
