<?xml version="1.0" encoding="utf-8"?>
<!-- Generator: Adobe Illustrator 25.2.3, SVG Export Plug-In . SVG Version: 6.00 Build 0)  -->
<svg version="1.1" id="Layer_1" xmlns="http://www.w3.org/2000/svg" xmlns:xlink="http://www.w3.org/1999/xlink" x="0px" y="0px"
	 viewBox="0 0 500 500" style="enable-background:new 0 0 500 500;" xml:space="preserve">
<path d="M434.3,250c0,45.7-37.1,82.8-82.8,82.8h-0.1v14.9c0,3.4-3.7,5.5-6.6,3.8l-47.2-27.3c-2.9-1.7-2.9-6,0-7.5l47.2-27.3
	c2.9-1.7,6.6,0.4,6.6,3.8v14.6h0.1c31.9,0,57.8-25.9,57.8-57.8c0-3.4-0.3-6.7-0.8-9.9c6.7-9.5,11.6-20.3,14.5-31.9
	C430.2,220.5,434.3,234.8,434.3,250z M249.6,320.3c0,6.9-5.6,12.5-12.5,12.5h-88.6c-45.7,0-82.8-37.1-82.8-82.8s37.1-82.8,82.8-82.8
	h0.1v-14.9c0-3.4,3.7-5.5,6.6-3.8l47.2,27.3c2.9,1.7,2.9,6,0,7.5l-47.2,27.3c-2.9,1.7-6.6-0.4-6.6-3.8v-14.6h-0.1
	c-31.9,0-57.8,25.9-57.8,57.8s25.9,57.8,57.8,57.8h88.6C244,307.8,249.6,313.4,249.6,320.3z M419.8,185.1c0,5.5-0.5,10.9-1.4,16.1v0
	c-2,11.2-6.1,21.7-11.9,31c-15.8,25.8-44.3,43-76.8,43c-49.8,0-90.1-40.3-90.1-90.1S280,95,329.7,95S419.8,135.3,419.8,185.1z
	 M349.6,120.6h-2.7l-55.8,19.3v22.3l29-8.5v93.8h29.5V120.6z"/>
</svg>
