<?xml version="1.0" encoding="utf-8"?>
<!-- Generator: Adobe Illustrator 25.2.3, SVG Export Plug-In . SVG Version: 6.00 Build 0)  -->
<svg version="1.1" id="Layer_1" xmlns="http://www.w3.org/2000/svg" xmlns:xlink="http://www.w3.org/1999/xlink" x="0px" y="0px"
	 viewBox="0 0 500 500" style="enable-background:new 0 0 500 500;" xml:space="preserve">
<style type="text/css">
	.st0{fill:none;stroke:#000000;stroke-width:30;stroke-miterlimit:10;}
</style>
<path class="st0" d="M250,178.5c-39.5,0-71.5,32-71.5,71.5s32,71.5,71.5,71.5s71.5-32,71.5-71.5S289.5,178.5,250,178.5z M410.8,250
	c0-12.1-1.4-23.9-4-35.2l46.7-41.1l-35.7-61.9l-59,20c-17.3-15.9-37.9-28.2-60.9-35.4l-12.2-60.9h-71.5l-12.2,60.9
	c-23,7.2-43.6,19.5-60.9,35.4l-59-20l-35.7,61.9l46.7,41.1c-2.5,11.3-4,23.1-4,35.2c0,12.1,1.4,23.9,4,35.2l-46.7,41.1l35.7,61.9
	l59-20c17.3,15.9,37.9,28.2,60.9,35.4l12.2,60.9h71.5l12.2-60.9c23-7.2,43.6-19.5,60.9-35.4l59,20l35.7-61.9l-46.7-41.1
	C409.4,273.9,410.8,262.1,410.8,250z"/>
</svg>
