<svg xmlns="http://www.w3.org/2000/svg" viewBox="0 0 359.6 359.6"><defs><style>.cls-1,.cls-2,.cls-4{fill:none;}.cls-1,.cls-2{stroke:#e64c3c;stroke-miterlimit:10;stroke-width:12px;}.cls-2{stroke-linecap:round;}.cls-3{fill:#e64c3c;}</style></defs><g id="Layer_2" data-name="Layer 2"><g id="Layer_1-2" data-name="Layer 1"><circle class="cls-1" cx="179.8" cy="179.8" r="135"/><circle class="cls-1" cx="179.8" cy="179.8" r="5.75"/><line class="cls-2" x1="208.63" y1="244.22" x2="314.8" y2="63.87"/><path class="cls-3" d="M120.17,245.64a59.15,59.15,0,0,1-12-9.38c-.87-.94-1.77-1.87-2.62-2.84s-1.67-2-2.46-3-1.53-2.09-2.24-3.17-1.42-2.19-2.07-3.32-1.31-2.26-1.94-3.42S95.6,218.2,95,217a33.24,33.24,0,0,1-1.43-3.7,30.34,30.34,0,0,1-.84-3.87c-.14-1.32-.3-2.63-.33-4s0-2.65.15-4a39.58,39.58,0,0,1,.66-3.92,28,28,0,0,1,1.32-3.83.44.44,0,0,1,.58-.21.48.48,0,0,1,.21.19v0a34,34,0,0,1,1.53,3.62c.48,1.18.92,2.34,1.31,3.49s.84,2.28,1.2,3.41c.17.56.4,1.11.59,1.67l.56,1.67c.36,1.11.77,2.2,1,3.33s.63,2.23.88,3.38.6,2.27.89,3.41.76,2.23,1.16,3.35.95,2.17,1.42,3.26,1.08,2.12,1.62,3.19,1.17,2.08,1.76,3.13,1.29,2,1.94,3.05A72.47,72.47,0,0,0,120.66,245a.41.41,0,0,1,0,.57A.4.4,0,0,1,120.17,245.64Z"/><path class="cls-3" d="M126.25,239.41a38.55,38.55,0,0,1-8.53-6c-.62-.63-1.26-1.24-1.88-1.89s-1.2-1.32-1.78-2-1.1-1.42-1.62-2.16-1-1.48-1.5-2.25c-.93-1.54-2-3.08-2.82-4.72a16.72,16.72,0,0,1-1.06-2.55,15.64,15.64,0,0,1-.53-2.71,25.55,25.55,0,0,1-.09-2.77,23.64,23.64,0,0,1,.31-2.78,21.57,21.57,0,0,1,.77-2.72,14.78,14.78,0,0,1,1.35-2.62.49.49,0,0,1,.68-.13.57.57,0,0,1,.11.11v0a19.91,19.91,0,0,1,1.5,2.41c.45.78.85,1.54,1.2,2.29s.73,1.49,1,2.22.65,1.44.92,2.16a20.87,20.87,0,0,1,1.25,4.4c.13.77.3,1.52.45,2.3s.43,1.5.66,2.25.57,1.46.86,2.2.66,1.43,1,2.16.72,1.42,1.08,2.14.8,1.39,1.2,2.1a51.08,51.08,0,0,0,5.93,7.94.42.42,0,0,1,0,.58A.43.43,0,0,1,126.25,239.41Z"/><rect class="cls-4" width="359.6" height="359.6"/></g></g></svg>