<?xml version="1.0" encoding="utf-8"?>
<!-- Generator: Adobe Illustrator 25.2.1, SVG Export Plug-In . SVG Version: 6.00 Build 0)  -->
<svg version="1.1" id="Layer_1" xmlns="http://www.w3.org/2000/svg" xmlns:xlink="http://www.w3.org/1999/xlink" x="0px" y="0px"
	 viewBox="0 0 500 500" style="enable-background:new 0 0 500 500;" xml:space="preserve">
<style type="text/css">
	.st0{fill:#FFFFFF;}
</style>
<path class="st0" d="M241.3,276.8c-9.3,10.9-19.3,21.2-30.9,29.9c-21.6,16.2-45.6,24.1-73.2,24.1h-29.5c-6.2,0-11.2-5-11.2-11.2
	c0-6.2,5-11.2,11.2-11.2h29.5c41.3,0,65.9-21.3,88.2-47.5L241.3,276.8z"/>
<path class="st0" d="M372.2,179.5c0,6.2-5,11.2-11.2,11.2c-41,0-65.5,21.1-87.8,47.1L257.4,222c9.2-10.7,19.1-20.9,30.5-29.5
	c21.6-16.2,45.5-24.1,73.1-24.1C367.2,168.4,372.2,173.4,372.2,179.5z"/>
<path class="st0" d="M361,330.8c-27.6,0-51.5-7.9-73.1-24.1c-18.6-14-33.3-32.3-47.5-50.1c-27-33.9-52.6-65.8-103.2-65.8h-29.5
	c-6.2,0-11.2-5-11.2-11.2s5-11.2,11.2-11.2h29.5c27.6,0,51.5,7.9,73.2,24.1c18.6,14,33.3,32.4,47.5,50.1
	c27,33.8,52.6,65.8,103.1,65.8c6.2,0,11.2,5,11.2,11.2C372.2,325.8,367.2,330.8,361,330.8z"/>
<path class="st0" d="M414,176.7l-46.8-27c-1.9-1.1-4.4,0.3-4.4,2.5v54.1c0,2.2,2.4,3.6,4.4,2.5l46.8-27
	C416,180.6,416,177.8,414,176.7z"/>
<path class="st0" d="M414,312l-46.8-27c-1.9-1.1-4.4,0.3-4.4,2.5v54.1c0,2.2,2.4,3.6,4.4,2.5l46.8-27C416,315.9,416,313.2,414,312z"
	/>
</svg>
